<svg width="144" height="80" viewBox="0 0 144 80" fill="none" xmlns="http://www.w3.org/2000/svg">
<g clip-path="url(#clip0_2808_131)">
<path d="M32.813 45.4919C32.813 46.586 32.4203 47.5226 31.6367 48.3017C30.8562 49.0777 29.9191 49.4648 28.8219 49.4648H25.8262V41.5238H28.8219C29.9174 41.5238 30.8562 41.9142 31.6367 42.6933C32.4203 43.4693 32.813 44.4011 32.813 45.4919ZM31.8176 45.4919C31.8176 44.6774 31.5236 43.977 30.9338 43.3922C30.344 42.8074 29.6411 42.5134 28.8219 42.5134H26.8215V48.4704H28.8219C29.6411 48.4704 30.3456 48.178 30.9338 47.5916C31.5219 47.0069 31.8176 46.3064 31.8176 45.4919ZM83.0326 43.834C82.7482 43.4034 82.3701 43.0596 81.8983 42.8042C81.4378 42.5439 80.9466 42.4138 80.4247 42.4138C79.578 42.4138 78.8508 42.7191 78.2417 43.3263C77.6325 43.932 77.3288 44.6533 77.3288 45.4903C77.3288 46.3273 77.6325 47.0551 78.2417 47.6607C78.8508 48.2664 79.578 48.5684 80.4247 48.5684C81.4071 48.5684 82.2182 48.1732 82.8581 47.3812V45.9915H80.4247V44.9971H83.8583V49.4648H82.8581V48.5636C82.2893 49.2239 81.4766 49.5532 80.4247 49.5532C79.3017 49.5532 78.3386 49.1564 77.534 48.3612C76.7309 47.5627 76.3286 46.6068 76.3286 45.4935C76.3286 44.3802 76.7309 43.4307 77.534 42.6323C78.3419 41.829 79.3049 41.429 80.4247 41.429C81.1114 41.429 81.7626 41.5977 82.3782 41.9351C82.9938 42.2724 83.4915 42.7287 83.8696 43.3022L83.0326 43.8372V43.834ZM93.0102 49.4648L91.0034 45.9915H88.675V49.4648H87.6797V41.5238H91.9212C92.5336 41.5238 93.0603 41.7455 93.5014 42.1873C93.9458 42.6259 94.1688 43.1496 94.1688 43.7585C94.1688 44.3288 93.9733 44.8268 93.5839 45.2541C93.1896 45.6815 92.7097 45.9225 92.1442 45.9819L94.1688 49.4664H93.0102V49.4648ZM93.1686 43.7585C93.1686 43.4211 93.0458 43.1303 92.8002 42.8861C92.5546 42.6387 92.2621 42.5134 91.9228 42.5134H88.675V44.9971H91.9228C92.2621 44.9971 92.5546 44.875 92.8002 44.6308C93.0458 44.3866 93.1686 44.0958 93.1686 43.7585ZM97.5846 49.4648V41.5238H102.731V42.5118H98.58V44.8975H102.658V45.8919H98.58V48.4688H102.731V49.4632H97.5846V49.4648ZM112.61 43.834C112.326 43.4034 111.946 43.0596 111.476 42.8042C111.015 42.5439 110.524 42.4138 110.002 42.4138C109.155 42.4138 108.428 42.7191 107.819 43.3263C107.21 43.932 106.906 44.6533 106.906 45.4903C106.906 46.3273 107.21 47.0551 107.819 47.6607C108.428 48.2664 109.155 48.5684 110.002 48.5684C110.985 48.5684 111.796 48.1732 112.436 47.3812V45.9915H110.002V44.9971H113.436V49.4648H112.436V48.5636C111.865 49.2239 111.054 49.5532 110.002 49.5532C108.879 49.5532 107.916 49.1564 107.111 48.3612C106.308 47.5627 105.906 46.6068 105.906 45.4935C105.906 44.3802 106.308 43.4307 107.111 42.6323C107.915 41.8339 108.882 41.429 110.002 41.429C110.689 41.429 111.34 41.5977 111.956 41.9351C112.571 42.2724 113.069 42.7287 113.447 43.3022L112.61 43.8372V43.834ZM124.334 45.4919C124.334 46.6084 123.931 47.5643 123.123 48.3596C122.323 49.1548 121.361 49.5516 120.238 49.5516C119.115 49.5516 118.152 49.1548 117.348 48.3596C116.545 47.5611 116.142 46.6052 116.142 45.4919C116.142 44.3786 116.545 43.4291 117.348 42.6307C118.156 41.8274 119.119 41.4274 120.238 41.4274C121.358 41.4274 122.32 41.829 123.123 42.6307C123.931 43.4291 124.334 44.3834 124.334 45.4919ZM123.334 45.4919C123.334 44.6549 123.031 43.9336 122.421 43.3279C121.812 42.7191 121.085 42.4154 120.238 42.4154C119.392 42.4154 118.665 42.7207 118.055 43.3279C117.446 43.9336 117.142 44.6549 117.142 45.4919C117.142 46.3289 117.446 47.0567 118.055 47.6623C118.665 48.268 119.392 48.57 120.238 48.57C121.085 48.57 121.812 48.268 122.421 47.6623C123.031 47.0567 123.334 46.3337 123.334 45.4919ZM132.84 49.4648L130.833 45.9915H128.505V49.4648H127.51V41.5238H131.751C132.363 41.5238 132.89 41.7455 133.331 42.1873C133.776 42.6259 133.999 43.1496 133.999 43.7585C133.999 44.3288 133.803 44.8268 133.414 45.2541C133.019 45.6815 132.54 45.9225 131.974 45.9819L133.999 49.4664H132.84V49.4648ZM132.998 43.7585C132.998 43.4211 132.876 43.1303 132.63 42.8861C132.384 42.6387 132.092 42.5134 131.753 42.5134H128.507V44.9971H131.753C132.092 44.9971 132.384 44.875 132.63 44.6308C132.876 44.3866 132.998 44.0958 132.998 43.7585ZM140.826 46.0028V49.4664H139.825V46.0028L136.649 41.5254H137.825L140.318 44.9377L142.815 41.5254H144.002L140.827 46.0028H140.826ZM52.2674 16.0347C53.2579 16.6002 53.956 16.8315 54.4552 16.8315C55.1517 16.8315 56.1615 16.3881 56.3845 16.2901C56.5235 16.2307 56.824 15.956 56.8127 15.8998C56.8095 15.8821 56.2811 16.0122 56.2682 16.009C56.2116 16.001 56.1502 16.0122 56.0937 16.0122C55.9111 16.0122 55.7285 16.0267 55.5427 16.0219C54.9012 16.0042 53.8994 15.7664 53.3452 15.5431C52.4726 15.1913 50.6015 13.1976 50.1879 12.8072C50.0101 12.6401 49.346 12.2337 49.0875 12.1019C48.9437 12.0297 48.0227 11.7341 47.5056 11.6634C47.2099 11.6232 46.3099 11.5654 46.2905 11.5605C46.234 11.5445 46.2614 11.4818 46.2841 11.4642C46.2921 11.4577 46.3907 11.4176 46.4052 11.4111C46.6331 11.2971 48.6496 11.0384 49.7322 11.3581C49.8405 11.3903 50.7825 11.8369 50.8908 11.8706C50.8988 11.8722 50.1959 11.1927 49.7807 10.9565C49.1133 10.5774 47.6914 10.6175 47.4491 10.6882C47.4264 10.6946 47.4022 10.7011 47.378 10.6994C47.3456 10.6978 47.3101 10.6288 47.3521 10.5934C47.386 10.5645 47.7205 10.3444 47.8918 10.2753C48.1019 10.1918 48.265 10.1388 48.4606 10.1211C49.1376 10.0601 50.1006 10.2046 50.6258 10.5083C50.8148 10.6175 50.8714 10.632 51.1509 10.8537C51.1945 10.8874 51.2802 10.9629 51.3206 11.0031C51.5015 11.1943 52.3207 11.9188 52.5195 12.0939C52.6746 12.2289 54.1014 12.9181 54.1692 12.8426C54.2306 12.7735 54.0222 12.02 53.3565 11.2698C52.9283 10.7894 51.0475 10.2352 51.0669 10.0825C51.083 9.95563 51.2947 9.99419 51.5419 9.9733C51.7051 9.96045 51.9911 9.97973 52.1511 10.0167C52.2739 10.044 53.384 10.0038 55.4328 11.6425C55.4538 11.6585 56.1308 12.1775 56.2133 12.11C56.2698 12.0634 55.7996 11.5332 55.7948 11.5268C55.2551 10.9163 54.864 10.5741 54.6314 10.4071C54.124 10.044 52.8604 9.37728 52.6601 9.27928C52.4128 9.1588 51.264 8.82785 50.9925 8.7668C50.6694 8.6929 50.3511 8.59973 50.0231 8.53386C49.7952 8.48888 48.9065 8.4214 48.6932 8.38445C48.6674 8.37963 48.6383 8.33786 48.6318 8.30895C48.627 8.28003 48.6399 8.23665 48.6609 8.21898C48.7029 8.18364 48.8677 8.09206 49.8227 8.02298C50.0521 8.00692 51.3706 8.00531 51.9346 8.11616C52.0137 8.13223 52.6698 8.20934 53.3484 8.38445C53.4518 8.41176 55.0192 8.94834 57.0696 9.75482C57.2926 9.84317 57.5301 9.89458 57.7402 10.0167C58.0424 10.0809 58.4059 10.2384 58.7226 10.2352C58.742 10.2352 58.763 10.2239 58.7808 10.2127C58.7872 10.2095 58.7889 10.1854 58.784 10.1805C58.7582 10.1581 58.6531 10.1115 58.6257 10.0922C58.3881 9.93153 58.1635 9.75482 57.9583 9.554C57.9099 9.50581 57.5205 9.22627 57.3847 9.12345C57.3039 9.0608 56.6705 8.48888 56.5639 8.40212C56.5283 8.37321 55.6396 7.32575 54.6475 6.55784C54.3551 6.33132 53.5423 5.92326 53.0721 5.81402C52.7085 5.72887 51.6987 5.57946 51.6873 5.57625C51.6615 5.56822 51.6001 5.49914 51.6647 5.44612C51.6809 5.43166 51.773 5.39471 51.8263 5.3915C51.996 5.37704 53.0511 5.13606 54.1951 5.32081C54.4843 5.3674 55.1872 5.49592 55.4506 5.62123C55.6057 5.69513 55.7624 5.75939 55.9159 5.83811C56.1082 5.93611 57.1634 6.58836 57.1698 6.59318C57.4316 6.81649 57.3653 5.41239 56.4023 4.91436C56.3732 4.8999 55.6089 4.53844 55.3553 4.48542C55.2777 4.46936 55.0321 4.45329 54.9529 4.44526C54.9061 4.44044 54.8544 4.42437 54.9028 4.36493C54.9271 4.33602 55.4215 4.24926 55.5685 4.23159C56.2536 4.15127 57.0906 4.42116 57.3282 4.59948C57.8662 5.00433 58.5126 6.26706 59.3916 7.52818C60.0589 8.48566 61.2207 9.51866 62.7024 10.1083C64.3893 10.7798 65.4363 10.5035 65.6512 10.4087C65.7369 10.3701 65.7983 10.3685 65.8096 10.2689C65.8241 10.1452 65.8015 10.0054 65.7854 9.87691C65.7643 9.69537 65.7837 9.42387 65.7757 9.24073C65.7724 9.16201 65.8807 8.59973 66.0116 8.38606C66.1376 8.18364 66.2976 7.99889 66.5141 7.8784C66.5642 7.85109 66.6191 7.83181 66.6724 7.81253C66.7306 7.79004 66.7969 7.83181 66.7969 7.88643C66.7969 7.90892 66.8017 7.93302 66.7985 7.95551C66.7678 8.26396 66.7952 8.57241 66.8259 8.87765C66.8405 9.02385 66.8776 9.16844 66.9083 9.31302C66.9439 9.4801 66.9827 9.64718 67.0215 9.81426C67.0958 10.1388 67.28 10.3942 67.5256 10.6111C67.6015 10.6786 67.713 10.7621 67.7987 10.8183C67.8794 10.8713 67.9312 10.8489 67.9473 10.7621C67.9489 10.7509 67.9522 10.7396 67.9538 10.7284C67.9667 10.3653 68.1671 9.81586 68.5403 9.3066C68.6179 9.20699 68.6825 9.09775 68.7601 8.99975C68.9168 8.80054 69.1042 8.63346 69.324 8.50494C69.4032 8.45835 69.4872 8.42301 69.5809 8.41016C69.6197 8.40534 69.652 8.43907 69.6439 8.47602C69.6358 8.5194 69.6294 8.56278 69.6148 8.60455C69.5308 8.86641 69.471 9.13309 69.4306 9.40459C69.3822 9.72108 69.3692 10.0392 69.4112 10.3589C69.4468 10.6416 69.4678 10.926 69.5324 11.2055C69.5728 11.3838 69.6197 11.5605 69.6665 11.7357C69.6779 11.779 69.7005 11.8208 69.7231 11.8594C69.778 11.959 69.8394 12.0554 69.8911 12.1566C69.9719 12.3156 70.098 12.4265 70.245 12.518C70.3258 12.5678 70.4147 12.5903 70.5084 12.5743C70.6215 12.555 71.0335 12.6273 71.4843 11.9558C71.5538 11.8513 71.5958 11.7308 71.6443 11.6168C71.7057 11.4738 71.7429 11.0111 71.4601 10.7701C71.2921 10.6272 71.1062 10.5709 70.8025 10.6754C70.754 10.6914 70.628 10.7669 70.5956 10.8103C70.5488 10.873 70.4922 11.0272 70.4664 11.0095C70.4373 10.9902 70.4066 10.9726 70.4082 10.9308C70.4082 10.8858 70.4082 10.8392 70.413 10.7942C70.4486 10.5147 70.6651 10.285 70.9301 10.2046C71.1402 10.142 71.2177 10.1356 71.4375 10.1516C71.5667 10.1613 71.7671 10.232 71.8641 10.3251C72.0337 10.4858 72.2244 10.677 72.289 10.881C72.3795 11.1653 72.3569 11.514 72.3359 11.816C72.3359 11.8385 72.3359 11.8626 72.3456 11.8835C72.3536 11.9027 72.3682 11.9236 72.3843 11.9365C72.4167 11.959 72.7156 12.073 73.1163 11.085C73.4653 10.2255 73.1212 9.75642 73.0145 9.64075C72.9838 9.60702 72.9531 9.57167 72.9192 9.54436C72.8125 9.456 72.6332 9.48813 72.5589 9.61023C72.5362 9.64878 72.5298 9.69537 72.5071 9.73554C72.4991 9.75 72.47 9.76124 72.4522 9.76124C72.4328 9.75963 72.4102 9.74518 72.3957 9.72911C72.3811 9.71305 72.3698 9.69055 72.365 9.66806C72.344 9.58613 72.4457 9.20539 72.8255 9.17165C72.9838 9.15719 73.0905 9.15719 73.2262 9.2086C73.4217 9.2825 73.9905 9.54436 74.1601 10.7541C74.2441 11.3501 74.2862 11.7485 74.0341 12.3911C73.5881 13.5285 73.0161 13.7631 73.1551 13.792C73.3797 13.8386 73.8693 13.5125 74.0826 13.3341C74.3363 13.1221 74.619 12.3317 74.6336 12.2514C74.6578 12.118 74.8339 12.1373 74.8355 12.2562C74.842 12.7638 74.8921 13.3984 74.703 13.8322C74.5221 14.2483 74.0761 14.5696 74.0082 14.6129C73.5946 14.878 73.2116 14.9792 73.0436 15.0563C72.9531 15.0981 72.8125 15.0901 73.0016 15.3294C73.1906 15.5704 73.2391 15.8708 73.2698 16.1664C73.2989 16.4396 73.2908 16.7143 73.2666 16.9874C73.2569 17.0918 73.2343 17.1882 73.1826 17.2814C73.0097 17.5914 72.9741 17.9272 73.0016 18.2742C73.0081 18.3545 73.0129 18.4332 73.0242 18.5136C73.0404 18.6148 73.063 18.7128 73.0549 18.8188C73.0484 18.8959 73.0759 18.9763 73.0921 19.0534C73.1163 19.1755 73.147 19.2976 73.1696 19.4213C73.2149 19.6799 73.2472 19.9402 73.3021 20.1956C73.3587 20.4655 73.3587 20.7402 73.391 21.0117C73.4282 21.3411 73.4799 21.664 73.6059 21.974C73.6495 22.0833 73.6899 22.1941 73.719 22.3082C73.7319 22.3596 73.7626 22.4094 73.7707 22.4624C73.803 22.6921 73.8871 22.9026 73.9905 23.1082C74.0212 23.1693 74.0567 23.2303 74.0745 23.2962C74.1634 23.6079 74.3395 23.8761 74.4995 24.1541C74.5463 24.2344 74.6012 24.3051 74.6723 24.3661C74.8113 24.485 74.9486 24.6055 75.0844 24.7276C75.1345 24.7742 75.1797 24.8256 75.2217 24.8802C75.3138 24.9975 75.3251 25.1308 75.2783 25.269C75.2379 25.3879 75.1959 25.5052 75.1522 25.624C75.1151 25.7236 75.0537 25.804 74.9583 25.8554C74.8162 25.9325 74.6885 26.0273 74.5528 26.1349C74.5269 26.2136 74.493 26.2988 74.4704 26.3855C74.4203 26.5864 74.3459 26.7743 74.207 26.951C74.0696 26.9976 73.9258 27.0683 73.7675 27.102C73.7449 27.1069 73.7206 27.1117 73.7029 27.1261C73.5203 27.2739 73.2957 27.2691 73.0824 27.2932C72.9208 27.3125 72.7625 27.2675 72.6106 27.2161C72.5104 27.1824 72.4053 27.1583 72.3068 27.1743C72.1614 27.1968 72.0369 27.1518 71.9044 27.1149C71.7073 27.0619 71.5877 26.9398 71.5199 26.7566C71.4957 26.6924 71.4633 26.6297 71.452 26.5623C71.4165 26.355 71.3018 26.1847 71.2 26.0064C71.1305 25.8859 71.0303 25.7606 70.9269 25.6706C70.9123 25.6578 70.8849 25.661 70.8622 25.661C70.8332 25.661 70.8041 25.706 70.8105 25.7365C70.817 25.7702 70.8202 25.804 70.8315 25.8361C70.859 25.9132 70.8784 26.0192 70.8477 26.0996C70.8364 26.1317 70.8235 26.167 70.8251 26.1992C70.8348 26.3984 70.7944 26.5847 70.6974 26.7599C70.6764 26.7968 70.6716 26.8482 70.6764 26.8916C70.6861 26.9976 70.6619 27.094 70.636 27.1952C70.6118 27.29 70.5585 27.3559 70.4858 27.4185C70.371 27.5181 70.2579 27.5615 70.1141 27.4667C70.0156 27.4009 69.9025 27.388 69.7845 27.425C69.6762 27.4587 69.5809 27.4217 69.4969 27.3543C69.2529 27.1599 69.059 26.9189 68.8651 26.6795C68.7843 26.5028 68.7003 26.3277 68.6647 26.1349C68.6583 26.1012 68.6664 26.0626 68.6534 26.0337C68.5597 25.8136 68.5904 25.5871 68.6082 25.359C68.613 25.2899 68.6146 25.2224 68.6389 25.1565C68.6841 25.0361 68.6809 24.9107 68.6793 24.7838C68.676 24.6151 68.6324 24.4673 68.4838 24.3677C68.4224 24.3276 68.3852 24.2697 68.369 24.2023C68.3351 24.0657 68.2656 23.9484 68.1768 23.8424C68.0346 23.6737 67.9554 23.4697 67.8794 23.2673C67.8277 23.1275 67.7389 23.0151 67.6629 22.893C67.6516 22.8737 67.6274 22.8448 67.6112 22.8287C67.5288 22.7516 67.4367 22.6825 67.3656 22.5974C67.2945 22.5106 67.2396 22.4078 67.1846 22.3082C67.0748 22.1138 66.91 21.9724 66.7258 21.8567C66.5981 21.7764 66.4801 21.6929 66.3897 21.5692C66.3574 21.5242 66.3056 21.4921 66.2636 21.4535C66.2378 21.431 66.2006 21.4133 66.1877 21.386C66.0988 21.1916 65.9195 21.076 65.7886 20.9185C65.6496 20.7531 65.4913 20.6053 65.4024 20.4012C65.3523 20.2872 65.2489 20.2036 65.2053 20.0831C65.1875 20.035 65.0938 20.0382 65.0582 20.0831C65.0372 20.1105 65.013 20.1362 65.0001 20.1667C64.971 20.2293 64.9403 20.292 64.9241 20.3579C64.8821 20.5362 64.8272 20.7081 64.7642 20.88C64.7674 21.1001 64.6543 21.2961 64.6365 21.513C64.6317 21.582 64.6187 21.6447 64.6478 21.7122C64.6898 21.8069 64.6995 21.9114 64.6979 22.0142C64.6963 22.1989 64.727 22.3773 64.769 22.5572C64.7916 22.6568 64.811 22.7596 64.8094 22.8624C64.8094 23.0488 64.853 23.2239 64.9193 23.3958C64.9597 23.5018 65.0049 23.6095 64.9694 23.7283C64.9629 23.7492 64.9613 23.7765 64.9694 23.7958C65.0291 23.9484 65.0049 24.1123 65.0259 24.2697C65.0825 24.6666 65.0922 25.065 65.0534 25.4634C65.0502 25.4971 65.0437 25.5325 65.0502 25.5662C65.0922 25.7751 65.0259 25.9743 65.0001 26.1767C64.9855 26.2891 64.9661 26.4016 64.9467 26.5141C64.9225 26.649 64.9031 26.7807 64.9274 26.9221C64.9419 27.0089 64.929 27.1053 64.9063 27.192C64.8385 27.4491 64.8239 27.7109 64.8175 27.9728C64.8142 28.1109 64.8062 28.2443 64.7642 28.3776C64.7028 28.5752 64.8304 29.711 65.1552 30.4774C65.2748 30.7617 65.3458 31.3545 65.3119 31.5618C65.2941 31.6678 65.9954 31.136 66.1909 31.022C66.2733 30.9738 66.5513 30.8083 66.6353 30.7537C66.8082 30.6412 67.5191 30.3247 67.6565 30.2412C67.7162 30.2042 68.327 30.0002 68.4078 29.9729C68.4611 29.9536 68.8102 29.8428 69.0105 29.9215C69.1059 29.9584 69.3321 30.0082 69.4726 30.0548C69.6811 30.1239 69.9525 30.2653 70.1578 30.336C70.1885 30.3472 70.2175 30.3713 70.2402 30.3938C70.2886 30.442 70.3274 30.5014 70.3823 30.5416C70.5359 30.6573 70.6166 30.8195 70.678 30.993C70.7055 31.0685 70.7298 31.1457 70.7685 31.2131C70.8897 31.4316 70.9301 31.6614 70.8897 31.9072C70.8833 31.9521 70.8606 32.0019 70.8719 32.0405C70.9479 32.2831 70.859 32.516 70.8299 32.7522C70.8105 32.9096 70.7556 33.0622 70.7217 33.2181C70.6926 33.3514 70.6603 33.4815 70.6587 33.6213C70.6554 33.7788 70.5326 37.5477 70.5278 37.7983C70.5197 38.1533 70.5601 38.9228 70.6166 39.024C70.6958 39.1638 70.6425 39.4851 70.6716 39.6426C70.6958 39.7727 70.6861 39.898 70.6166 40.0072C70.1077 40.8009 68.7552 42.0315 68.8199 42.16C68.8877 42.2901 68.9265 42.3222 68.9928 42.454C69.0558 42.5793 69.0768 42.7142 69.1123 42.846C69.1462 42.9681 69.2012 43.0853 69.3014 43.1673C69.3983 43.2476 69.4872 43.3344 69.5841 43.4147C69.715 43.5239 69.8588 43.6187 69.9962 43.7215C70.0236 43.7424 70.0479 43.7665 70.0705 43.7938C70.1836 43.9416 70.3258 44.0541 70.4793 44.1553C70.5181 44.181 70.5552 44.2067 70.5876 44.2404C70.9592 44.6212 71.2016 44.9168 71.3664 45.5417C71.3842 45.6076 71.3922 45.6783 71.4197 45.7393C71.5635 46.0606 71.5813 46.4012 71.5845 46.7434C71.5845 46.8366 71.8075 47.6816 71.9529 47.9981C72.0143 48.133 72.142 48.3403 72.2357 48.4559C72.3343 48.5796 72.407 48.7178 72.4587 48.8656C72.5298 49.0729 72.6332 49.2608 72.777 49.4279C72.8142 49.4713 72.8481 49.5195 72.8707 49.5709C72.9337 49.7106 73.0404 49.8167 73.1535 49.9099C73.3231 50.0496 73.4799 50.2006 73.5994 50.3806C73.7222 50.5653 73.8968 50.6954 74.0535 50.8432C74.2183 50.9991 74.4623 51.2674 74.5495 51.4457C74.6788 51.7124 74.8452 51.9598 74.9535 52.2377C74.9729 52.2891 75.0165 52.3325 75.044 52.3823C75.0763 52.4433 75.1151 52.5044 75.1264 52.5686C75.1474 52.7068 75.2136 52.8273 75.2573 52.9574C75.2961 53.0699 75.3704 53.155 75.4689 53.2193C75.5077 53.2434 75.5643 53.2594 75.5804 53.2932C75.6677 53.4811 75.8697 53.547 75.9989 53.6884C76.0636 53.7591 76.1524 53.788 76.2461 53.796C76.314 53.8008 76.3835 53.8025 76.453 53.8025C76.5338 53.8025 76.6146 53.8008 76.6937 53.7944C76.865 53.78 77.012 53.8217 77.1268 53.9551C77.29 54.0434 77.3998 54.196 77.542 54.3101C77.6535 54.4001 78.1221 55.2644 78.1867 55.3174C78.3128 55.4218 78.4016 55.5503 78.4582 55.7046C78.4808 55.7672 78.5261 55.8235 78.5665 55.8781C78.678 56.0243 78.7684 56.1833 78.8315 56.3536C78.8557 56.4195 78.8912 56.4757 78.9429 56.5239C79.1126 56.6813 79.2079 56.8934 79.3437 57.0749C79.4132 57.1681 79.3744 57.5906 79.2629 57.6067C79.0027 57.6436 78.7426 57.6918 78.4776 57.6886C78.2821 57.6854 78.0866 57.6742 77.904 57.5938C77.5081 57.5248 76.0765 57.1231 75.7582 56.9946C75.7162 56.9769 75.6822 56.9432 75.6435 56.9191C75.5659 56.8693 75.4932 56.8099 75.4108 56.7745C75.2379 56.699 75.1005 56.5769 74.9793 56.442C74.9083 56.3632 74.8307 56.3038 74.7418 56.2492C74.6174 56.1721 74.5382 56.0693 74.5576 55.9102C74.5657 55.8427 74.5576 55.7737 74.5528 55.7062C74.5382 55.5134 74.5043 55.3222 74.5382 55.1278C74.5447 55.0957 74.5253 55.0604 74.5269 55.0266C74.5366 54.874 74.4704 54.7632 74.3427 54.6844C74.333 54.678 74.3233 54.6716 74.3153 54.6652C74.0713 54.4949 74.0971 54.4708 73.8192 54.5768C73.7675 54.5961 73.7061 54.6089 73.6511 54.6057C73.488 54.5961 73.3344 54.633 73.1777 54.6684C73.0113 54.7053 72.8368 54.7182 72.6671 54.6619C72.6235 54.6475 72.5766 54.6411 72.5346 54.6266C72.407 54.5816 72.2648 54.6234 72.1371 54.5382C72.0256 54.4627 71.8834 54.4354 71.7606 54.3744C71.5974 54.2908 71.4262 54.225 71.2581 54.1543C71.1499 54.1093 71.0481 54.0659 70.9301 54.0595C70.8736 54.0563 70.8186 54.0434 70.7653 54.0258C70.5359 53.9535 70.3145 53.9727 70.0964 54.0723C69.9622 54.1334 69.8136 54.1575 69.6972 54.2635C69.6455 54.3117 69.5664 54.2892 69.5033 54.2507C69.4694 54.2298 69.4581 54.1961 69.4646 54.1623C69.4726 54.1173 69.484 54.0707 69.505 54.0322C69.6294 53.8185 69.8007 53.6563 70.0382 53.5695C70.3985 53.4378 70.3985 53.4394 70.8089 53.4554C70.9123 53.4603 71.0109 53.4667 71.1143 53.4908C71.2096 53.5133 71.3454 53.5438 71.4472 53.5374C71.4536 53.5374 71.822 53.5004 71.57 53.3205C71.5619 53.3157 71.0432 52.9879 70.8526 53.0201C70.7847 53.0313 70.5536 53.0169 70.5423 52.9767C70.5294 52.9301 70.5359 52.8851 70.5714 52.8514C70.6538 52.7711 70.7427 52.6923 70.8574 52.6682C71.1369 52.6104 71.5861 52.4947 71.8479 52.5719C72.1824 52.6682 72.1824 51.9196 72.0984 51.8088C72.066 51.7654 71.6605 50.9846 71.4827 50.734C71.3761 50.583 70.9705 49.8906 70.9366 49.8327C70.8558 49.6946 70.0802 48.4447 70.0042 48.3612C69.9251 48.2744 69.2125 47.8182 69.0396 47.6109C68.8603 47.3956 68.6518 47.2077 68.4498 47.0117C68.4111 46.9747 68.3464 46.9121 68.3044 46.8783C68.1962 46.79 68.0944 46.4237 68.0653 46.3771C67.9699 46.2197 67.5078 45.516 67.4092 45.4019C67.3414 45.3248 67.2751 45.2477 67.2202 45.1594C67.1362 45.0244 67.0376 44.8959 66.9051 44.8011C66.7645 44.6999 66.6611 44.5617 66.5302 44.4509C66.4511 44.3834 66.3897 44.3031 66.3412 44.2099C66.3056 44.1408 66.2539 44.075 66.199 44.0187C66.0972 43.9127 66.283 43.9047 66.1812 43.9834C66.0196 44.1103 65.7207 44.3834 65.5915 44.5425C65.4848 44.6758 64.9274 45.3618 64.8676 45.5947C64.832 45.7361 64.4135 46.2663 64.2956 46.2968C64.239 46.3112 63.1613 47.0792 62.8656 46.9185C62.8058 46.8864 62.6329 45.5369 62.6959 44.8879C62.7072 44.7754 62.6491 43.2155 62.6911 43.0805C62.6733 42.9022 64.1275 42.9375 64.2988 42.8942C64.5282 42.8363 64.8304 42.5905 64.8789 42.4138C64.8918 42.3704 63.7187 41.6957 63.5878 41.5881C63.5264 41.5383 63.4489 41.5077 63.3762 41.474C63.2194 41.4017 63.0546 41.3551 62.8898 41.3069C62.8365 41.2909 62.7767 41.2925 62.7201 41.2941C62.662 41.2957 62.607 41.3182 62.5683 41.3648C62.5246 41.4178 62.313 41.7423 62.216 41.8274C62.1902 41.8499 62.1659 41.8788 62.1546 41.9094C62.0932 42.0877 61.0979 43.3649 61.0429 43.4645C61.0203 43.5046 60.1672 44.4204 60.1284 44.5698C60.109 44.6453 58.8422 45.8839 58.7452 45.9948C58.5594 46.2068 56.349 48.0575 55.3601 48.7467C55.3326 48.766 57.3379 49.9195 57.4655 50.0062C57.5592 50.0705 57.6352 50.1573 57.7564 50.1797C57.8097 50.1894 57.8614 50.2247 57.905 50.2601C57.968 50.3099 58.0278 50.3581 58.1021 50.3918C58.2637 50.4641 58.3655 50.6087 58.4802 50.7356C58.5174 50.7758 58.5352 50.8352 58.5546 50.8882C58.574 50.9412 58.5772 51.0007 58.5982 51.0537C58.7 51.2866 58.7582 51.5276 58.7662 51.7831C58.7695 51.8602 58.8018 51.9373 58.8228 52.0144C58.8583 52.1493 58.8697 52.2811 58.818 52.4176C58.7743 52.5333 58.784 52.6634 58.7372 52.7823C58.7129 52.8434 58.7258 52.9173 58.721 52.9847C58.7129 53.1213 58.7097 53.2578 58.6951 53.3944C58.6596 53.7462 58.5901 54.0948 58.6208 54.4499C58.5853 54.7567 58.5998 55.0652 58.582 55.372C58.5788 55.4283 58.574 55.4861 58.5675 55.5423C58.5433 55.7801 58.5109 56.0178 58.4948 56.2556C58.4802 56.4612 58.5336 56.6605 58.6014 56.8548C58.6095 56.8773 58.6208 56.8998 58.637 56.9175C58.7436 57.0396 58.8697 57.1376 59.0167 57.2083C59.0571 57.2276 59.1056 57.2372 59.1492 57.2372C59.2171 57.2388 59.2914 57.2436 59.3544 57.2227C59.5079 57.1729 59.6727 57.1633 59.8214 57.1103C60.1445 56.9946 60.4758 56.9079 60.8022 56.8018C60.862 56.7826 60.9185 56.7536 60.9702 56.7183C61.1431 56.601 61.316 56.4805 61.5212 56.413C61.7587 56.3343 61.9785 56.2219 62.1643 56.0516C62.1999 56.0178 62.2402 55.9889 62.2855 55.968C62.3695 55.9279 62.4616 55.9054 62.5392 55.8572C62.607 55.8154 62.6668 55.764 62.7508 55.7528C62.7832 55.748 62.8155 55.7287 62.8429 55.7078C62.9512 55.6242 63.0675 55.5471 63.1629 55.4507C63.2307 55.3817 63.3067 55.3351 63.3956 55.3142C63.5216 55.2837 63.6266 55.2258 63.73 55.1471C63.9223 55.0009 64.134 54.8836 64.3893 54.8901C64.4006 54.8901 64.4135 54.8901 64.4232 54.8853C64.5896 54.8162 64.7577 54.8306 64.929 54.8611C64.9742 54.8692 65.0211 54.8692 65.0663 54.8692C65.1503 54.8708 65.2263 54.8949 65.2861 54.9543C65.3862 55.0555 65.5317 55.0812 65.6415 55.1616C65.7514 55.2419 65.85 55.3383 65.9582 55.4234C65.9938 55.4507 66.0358 55.47 66.0794 55.4797C66.2055 55.5054 66.317 55.5632 66.4333 55.613C66.5723 55.6741 66.6466 55.7801 66.6999 55.9102C66.708 55.9311 66.7112 55.9552 66.7177 55.9761C66.7775 56.1592 66.7645 56.3633 66.8793 56.5319C66.9891 56.6942 67.0328 56.887 67.1216 57.0605C67.1588 57.1328 67.1992 57.1986 67.2541 57.2581C67.4092 57.4284 68.138 58.426 68.2123 58.667C68.2252 58.7104 68.2301 58.7602 68.2559 58.7955C68.3707 58.9546 68.4159 59.1474 68.5145 59.316C68.6599 59.5618 68.7714 59.8269 68.8538 60.1016C68.8926 60.2334 68.9443 60.3603 68.9782 60.492C69.0138 60.6237 69.0445 60.7587 69.0606 60.8936C69.0735 61.0093 69.0509 61.1218 68.9394 61.1957C68.912 61.2133 68.8893 61.2423 68.8683 61.268C68.6938 61.4945 68.6518 61.4543 68.39 61.4527C68.3464 61.4527 67.8407 61.2423 67.6209 61.1973C67.5175 61.1764 67.4206 61.1491 67.3301 61.0993C67.1281 60.99 66.918 60.9017 66.7112 60.8021C66.527 60.7121 66.346 60.6077 66.178 60.4904C66.0778 60.4213 66.0099 60.3073 65.9114 60.2285C65.8128 60.1498 65.732 60.0518 65.6739 59.9394C65.6205 59.8349 65.5511 59.7482 65.4638 59.6711C65.3604 59.5795 65.2715 59.4799 65.2004 59.3594C65.1067 59.2036 64.9839 59.0654 64.8724 58.9208C64.8417 58.8807 64.7722 58.8967 64.7577 58.9497C64.7448 59.0028 64.727 59.0558 64.7028 59.1056C64.6236 59.263 64.4022 59.5056 64.3101 59.6936C64.281 59.7546 64.2261 59.904 64.2083 59.9651C64.1663 60.1064 64.1049 60.243 64.1017 60.3956C64.1017 60.439 64.0807 60.4824 64.0661 60.5257C64.0483 60.5756 63.9579 60.5852 63.9207 60.5482C63.8528 60.4808 63.8237 60.3924 63.7979 60.3057C63.7171 60.0325 63.7494 59.2502 63.6832 58.9706C63.6799 58.9594 63.6719 58.9497 63.667 58.9401C63.6541 58.9112 63.6008 58.8791 63.5846 58.8903C63.5668 58.9032 63.5442 58.916 63.5378 58.9321C63.507 59.0172 63.4117 59.6646 63.3859 59.7514C63.3406 59.904 63.3051 60.0615 63.2501 60.2109C63.1564 60.4583 62.9157 60.6591 62.7234 60.8471C62.6394 60.929 62.544 60.99 62.4309 61.0206C62.3986 61.0286 62.363 61.0302 62.3291 61.0286C62.3081 61.027 62.2806 61.0157 62.2726 61.0013C62.2629 60.9852 62.2661 60.9531 62.2774 60.9386C62.321 60.8872 62.3517 60.8535 62.4002 60.8053C62.4341 60.7748 62.4681 60.7057 62.502 60.6752C62.599 60.59 62.6539 60.484 62.6878 60.3603C62.7686 60.0615 62.8478 59.7643 62.8333 59.451C62.8333 59.4285 62.8333 59.3932 62.8365 59.3707C62.8704 59.0799 62.8074 58.8437 62.6862 58.5867C62.6555 58.5192 62.6006 58.4806 62.5343 58.4565C62.3792 58.4019 62.2192 58.3939 62.0593 58.4212C61.9462 58.4405 61.8363 58.4726 61.728 58.5063C61.6828 58.5192 61.6408 58.5433 61.6052 58.5754C61.5099 58.6606 61.3903 58.704 61.2756 58.7489C61.03 58.8437 60.7957 58.9562 60.5857 59.1152C60.5194 59.165 60.4467 59.2052 60.3707 59.2389C60.2463 59.2919 60.1365 59.3755 60.0266 59.4526C59.9587 59.4992 59.8892 59.5297 59.8084 59.5474C59.7422 59.5618 59.6792 59.5891 59.6162 59.6181C59.5435 59.6518 59.4772 59.7064 59.4013 59.7257C59.2267 59.7707 59.0991 59.8783 58.9715 59.9956C58.8034 60.1498 58.6224 60.2912 58.4398 60.4278C58.3591 60.4888 58.267 60.5515 58.17 60.5756C57.9923 60.6189 57.8937 60.778 57.7337 60.8406C57.7014 60.8535 57.6804 60.8969 57.6529 60.921C57.5835 60.982 57.5156 61.0463 57.4574 61.1186C57.3265 61.2824 57.1892 61.427 56.9759 61.4463C56.879 61.5057 56.7756 61.5411 56.6576 61.5491C56.5461 61.5571 56.4362 61.6069 56.3264 61.6342C56.294 61.6423 56.2585 61.6375 56.2246 61.6326C56.1793 61.6262 56.1341 61.6118 56.0888 61.6085C55.9676 61.6037 55.8739 61.5491 55.7802 61.4736C55.6849 61.3949 55.6219 61.3065 55.6316 61.1828C55.6413 61.0511 55.5831 60.937 55.5395 60.8213C55.4506 60.5836 55.3956 60.3426 55.4053 60.0888C55.3359 59.7578 55.436 59.4301 55.4247 59.1008C55.4231 59.0349 55.4587 58.969 55.4684 58.9016C55.4764 58.8341 55.4684 58.765 55.4732 58.6991C55.4861 58.5481 55.4571 58.4035 55.4053 58.2638C55.3423 58.0919 55.2842 57.9216 55.2615 57.7384C55.2502 57.6501 55.2163 57.5585 55.1711 57.483C55.1 57.3641 55.045 57.2404 55.0079 57.1071C54.9739 56.9818 54.9125 56.8773 54.8204 56.7858C54.717 56.6813 54.633 56.556 54.4956 56.4886C54.3082 56.3054 54.0868 56.1592 53.9075 55.968C53.8121 55.8668 53.72 55.7737 53.5762 55.7367C53.4906 55.7142 53.4082 55.6612 53.3339 55.6098C53.2741 55.5696 53.2111 55.5536 53.1448 55.5375C53.0559 55.515 52.9638 55.5455 52.8734 55.5102C52.8006 55.4797 52.715 55.4797 52.6407 55.4524C52.4274 55.3704 52.206 55.311 51.9847 55.2596C51.7714 55.2098 50.9893 54.8885 50.8132 54.7808C50.6306 54.67 49.5658 54.2908 49.5222 54.2796C49.4882 54.2716 48.6432 53.9021 48.6383 53.9326C48.6367 53.9438 49.0681 55.4138 49.0665 55.425C49.0665 55.6419 49.6773 58.5995 49.6837 58.6766C49.6983 58.8726 50.0505 60.1803 49.7371 61.4752C49.5755 62.1419 49.3347 62.6078 48.8791 63.1283C48.7966 63.2231 48.1778 63.8994 48.0744 63.9814C48.0211 64.0231 47.2762 64.481 47.2164 64.5147C45.5198 65.4899 42.7535 66.3478 42.6792 66.4153C42.5774 66.5084 41.3477 67.0643 41.254 67.0755C41.065 67.098 40.2506 67.8001 40.0211 68.07C39.9694 68.131 39.9129 68.1921 39.8773 68.2612C39.7998 68.4202 39.6608 68.5246 39.5413 68.6467C39.5106 68.6788 39.4718 68.711 39.4298 68.7254C39.2197 68.7993 38.3407 69.8821 38.2373 70.1488C38.1969 70.2548 38.1355 70.3528 38.0806 70.4541C38.0482 70.5151 38.0078 70.5713 37.9804 70.634C37.8495 70.9248 37.7218 71.2188 37.5926 71.5095C37.5425 71.6252 37.2646 72.4461 37.2953 72.7546C37.3163 72.9634 37.1935 73.7699 37.1612 73.9723C37.1547 74.0077 37.1547 74.043 37.1612 74.0784C37.1886 74.2583 37.2161 74.4366 37.2468 74.6166C37.2791 74.8093 37.3421 74.9925 37.4261 75.1692C37.4762 75.2752 37.5021 75.3813 37.494 75.5001C37.4795 75.709 37.5974 75.868 37.7202 76.0207C37.7622 76.0737 37.822 76.1122 37.8753 76.1572C37.9384 76.2102 37.9836 76.2729 37.9981 76.3564C38.0078 76.4127 38.0159 76.4737 38.0466 76.5203C38.1565 76.6954 38.2244 76.8882 38.2777 77.0858C38.2955 77.1516 38.3262 77.2127 38.3472 77.277C38.4118 77.4858 38.47 77.6963 38.5362 77.9035C38.5605 77.9774 38.5766 78.0529 38.5847 78.13C38.6057 78.3116 38.6283 78.4947 38.6687 78.6714C38.7075 78.8369 38.7721 78.9959 38.8206 79.1598C38.8755 79.3478 38.8933 79.5406 38.8465 79.7333C38.8368 79.7719 38.7996 79.8185 38.7624 79.8345C38.659 79.8843 38.5508 79.9213 38.4425 79.9582C38.3552 79.9888 38.2648 80.0016 38.171 79.9936C37.8269 79.9695 37.4892 79.8956 37.1515 79.8313C36.9883 79.7446 36.1852 79.4297 36.0172 79.2401C35.8798 79.0843 35.7376 78.9381 35.5712 78.816C35.4597 78.7341 35.3627 78.6393 35.2755 78.5349C35.1592 78.3951 35.0331 78.2618 34.9281 78.1107C34.8231 77.9613 34.6922 77.8328 34.5758 77.6914C34.4951 77.595 34.424 77.4922 34.3432 77.3958C34.2446 77.2802 34.1864 77.1452 34.1396 77.0039C34.125 76.9605 34.125 76.9107 34.104 76.8721C33.9699 76.6327 34.0669 76.4319 34.2058 76.2408C34.2721 76.1476 34.3561 76.0688 34.4514 76.0014C34.592 75.9018 34.7148 75.7813 34.8425 75.6672C34.9281 75.5901 34.9507 75.4969 34.9911 75.4037C34.9992 75.3845 35.0089 74.5459 34.7487 74.5651C34.9426 74.5507 34.3722 74.5571 34.1897 74.5619C33.9699 74.5684 33.3753 74.3595 33.2606 74.3515C33.0182 74.3338 32.2975 74.5105 32.1424 74.533C31.9227 74.5635 31.8984 74.5876 31.7724 74.5603C31.7352 74.5523 31.627 74.5009 31.6254 74.4623C31.6221 74.3916 31.6965 74.3226 31.7546 74.276C31.816 74.2262 32.6482 73.8535 32.8356 73.6671C32.8453 73.6575 32.9988 73.4261 32.994 73.4181C32.9099 73.2607 32.7435 73.243 32.2491 73.3538C32.0536 73.3731 31.593 73.6976 31.4783 73.7073C31.4347 73.7105 31.3895 73.688 31.3652 73.6414C31.3426 73.598 31.3458 73.553 31.3652 73.5113C31.3749 73.492 31.3878 73.4695 31.404 73.4566C31.5381 73.3506 31.7126 73.0277 32.2281 72.7723C32.4139 72.6791 32.6191 72.6132 32.7855 72.5682C32.9519 72.5249 33.0974 72.5329 33.2606 72.4799C33.3155 72.4622 33.3704 72.4445 33.427 72.4365C33.608 72.4092 33.7825 72.3449 33.9424 72.2566C34.0911 72.1746 34.2446 72.1023 34.3803 71.9963C34.4514 71.9401 34.5435 71.9128 34.6179 71.8598C34.8311 71.7055 35.046 71.5497 35.248 71.3826C35.3789 71.2734 35.4985 71.1481 35.5922 71.0019C35.6908 70.8477 35.8039 70.7031 35.896 70.544C35.9751 70.4059 36.0382 70.2581 36.0947 70.1087C36.127 70.0235 36.161 69.94 36.2127 69.8629C36.3145 69.7102 36.3872 69.5432 36.4421 69.368C36.4971 69.1945 36.5698 69.0259 36.6134 68.8491C36.6295 68.7833 36.6473 68.7094 36.6893 68.6596C36.8154 68.5118 36.8299 68.327 36.8784 68.1519C36.8848 68.1294 36.8816 68.1053 36.8897 68.0844C37.0529 67.7149 37.027 67.3278 37.0093 66.939C36.9996 66.7093 37.0093 66.4843 37.0594 66.2578C37.0917 66.1116 37.1353 65.9719 37.1983 65.8369C37.2419 65.7437 37.2791 65.6473 37.326 65.5558C37.368 65.4722 37.3922 65.3871 37.3971 65.2939C37.4068 65.1445 37.4455 65.0031 37.5005 64.8634C37.57 64.6834 37.6314 64.4971 37.633 64.3011C37.633 64.1324 37.7073 63.9894 37.7994 63.8593C37.8867 63.7356 38.0256 63.6665 38.1613 63.6071C38.2437 63.5717 38.3326 63.5508 38.4199 63.5251C38.5104 63.4994 38.6041 63.4946 38.6962 63.5075C38.764 63.5171 38.8335 63.5267 38.8998 63.5428C39.2246 63.6247 39.5574 63.6247 39.887 63.6569C39.9565 63.6633 40.0211 63.652 40.0874 63.6263C40.3233 63.538 40.5511 63.4287 40.7838 63.3323C40.8161 63.3195 40.8517 63.3082 40.8743 63.2841C40.9939 63.1524 41.1522 63.0898 41.3122 63.0255C41.4301 62.9773 41.5206 62.905 41.5982 62.7942C41.6887 62.6656 41.8196 62.5628 41.9343 62.452C42.0005 62.3877 42.049 62.317 42.0716 62.2271C42.1088 62.0825 42.503 61.5282 42.5063 61.3194C42.5095 61.0816 42.4513 60.7298 42.4465 60.6077C42.4158 59.8542 41.0585 58.6461 40.5931 57.9617C40.1278 57.2774 39.189 55.8235 39.1373 55.703C39.0921 55.5985 39.0549 55.4877 39.0371 55.3768C39.0096 55.1937 38.3148 54.0482 38.2631 53.9599C38.2341 53.9085 38.1937 53.8747 38.1452 53.841C38.024 53.7543 37.4197 52.5108 37.3696 52.3582C37.2969 52.1381 37.1014 52.2763 36.9317 52.3887C36.8461 52.4449 35.568 53.2851 35.4015 53.4056C35.3175 53.4667 35.2302 53.5197 35.1462 53.5807C34.9135 53.7494 34.6679 53.8972 34.403 54.0081C34.159 54.1109 32.611 55.4732 28.9124 55.6869C28.7524 55.6965 27.3305 55.6339 25.6242 55.3319C25.2962 55.274 23.5382 54.7455 22.8725 54.4081C19.9252 52.9157 18.6778 51.6047 18.3692 51.3878C18.0283 51.1469 17.5322 50.787 17.1396 50.6569C17.1283 50.6537 17.1186 50.6472 17.1072 50.6472C16.902 50.6344 16.0036 50.3115 15.0018 50.9493C14.8031 51.0762 14.7158 51.338 14.6674 51.4425C14.6528 51.473 14.6237 51.6063 14.5995 51.6272C14.5866 51.6401 14.5995 51.8248 14.5026 51.8039C14.4751 51.7975 14.3006 51.179 14.286 51.0344C14.2763 50.9316 14.2505 50.6874 14.425 50.3018C14.4331 50.2842 14.3668 50.2697 14.349 50.2665C14.3151 50.2601 14.2796 50.2585 14.2473 50.2665C14.1018 50.3018 13.958 50.3404 13.8142 50.379C13.7916 50.3854 13.6833 50.4079 13.6656 50.4207C13.4555 50.5782 13.2826 50.5798 13.0919 50.7677C13.0015 50.8545 12.8835 50.9364 12.7979 51.028C12.6395 51.1983 12.5296 51.3734 12.4634 51.5951C12.4375 51.6834 12.4052 51.7943 12.3778 51.8811C12.3584 51.9421 12.2856 52.0513 12.2226 52.0562C12.1677 52.061 12.1451 51.7702 12.1467 51.7493C12.1596 51.571 12.1047 51.2513 12.2081 50.8963C12.2646 50.7003 12.5038 50.1396 12.6654 50.0127C12.9336 49.8006 13.7189 49.3283 14.1341 49.2897C14.2489 49.2785 14.3329 49.1773 14.3927 49.0777C14.4008 49.0632 14.3959 49.0311 14.3846 49.015C14.3652 48.9893 14.3394 48.962 14.3103 48.9475C14.2699 48.9267 14.2246 48.917 14.1826 48.8993C13.2325 48.509 12.0837 48.5331 11.2467 48.7307C11.1255 48.7596 11.0108 48.819 10.896 48.8704C10.7345 48.9443 10.5955 48.9957 10.5034 49.1451C10.4662 49.2062 10.4339 49.3427 10.4372 49.4118C10.442 49.5612 10.4759 49.7379 10.5228 49.8793C10.56 49.9918 10.6537 50.0641 10.728 50.1492C10.7345 50.1556 10.7361 50.1749 10.7328 50.1813C10.7215 50.1974 10.707 50.2199 10.6908 50.2215C10.5616 50.2392 10.4355 50.2247 10.3305 50.1444C10.1188 49.9837 9.95726 49.7122 9.94918 49.4391C9.94756 49.3476 9.95887 49.3122 9.94756 49.2206C9.94271 49.1821 9.8797 49.1532 9.8393 49.1676C9.70842 49.2174 9.584 49.2287 9.49837 49.3427C9.41757 49.4536 9.32386 49.5163 9.25761 49.6367C9.21398 49.7155 9.12026 49.8536 9.11057 49.9436C9.07987 50.2312 9.12673 50.583 9.25761 50.8497C9.32224 50.983 9.37233 51.0906 9.43212 51.2272C9.44504 51.2577 9.48382 51.3316 9.49675 51.3638C9.50806 51.3943 9.50806 51.4537 9.48544 51.4634C9.46605 51.4714 9.41919 51.473 9.3998 51.4698C9.2366 51.4473 9.13804 51.4087 9.012 51.3027C8.92475 51.2288 8.81972 51.1485 8.73247 51.0746C8.68884 51.0376 8.61936 50.9412 8.5822 50.8995C8.1944 50.4802 8.18955 50.3516 8.11523 50.2215C8.00212 50.0191 8.01181 49.9179 7.9795 49.6898C7.97142 49.6335 7.96495 49.5773 7.90517 49.5468C7.77267 49.5725 7.6531 49.5934 7.58362 49.7058C7.49637 49.844 7.38649 50.101 7.36872 50.2649C7.28146 51.0698 7.49314 52.0064 8.1734 52.4899C8.87789 52.9896 9.88778 53.0506 10.6908 53.3253C10.7781 53.3542 10.9138 53.4169 10.9978 53.4506C12.2097 53.939 12.9174 54.7391 13.3165 55.8765C13.3359 55.9295 13.3408 56.0612 13.2907 56.0901C13.2196 56.1319 13.1453 56.0114 13.1065 55.9664C12.8383 55.6483 12.6541 55.3238 12.3584 55.0298C12.074 54.7471 11.6312 54.4756 11.2338 54.3824C11.2192 54.3792 11.2063 54.3953 11.216 54.4081C11.4131 54.6732 11.6652 55.062 11.5908 55.3688C11.447 55.0523 11.2273 54.7246 10.9106 54.5768C10.8977 54.5704 10.8072 54.5077 10.7555 54.4724C10.7474 54.4659 10.7361 54.4756 10.7409 54.4852C10.9348 54.8354 11.1998 55.3544 11.2564 55.756C11.2709 55.8636 11.2434 56.0066 11.195 56.0773C11.1675 56.1175 11.1029 56.1062 11.0916 56.058C11.0625 55.9375 10.9348 55.7094 10.9235 55.6837C10.854 55.5246 10.7765 55.3415 10.665 55.2098C10.4097 54.9029 10.1867 54.572 9.93625 54.4402C9.64702 54.286 8.98615 54.0161 8.6743 54.1302C8.60482 54.1559 9.16551 54.4949 9.21721 54.5479C9.61309 54.9415 9.71165 55.4074 9.71165 55.862C9.71165 55.907 9.73589 56.1303 9.71165 56.1689C9.64217 56.2717 9.50968 55.9456 9.45474 55.8717C9.06371 55.3431 8.58866 54.8917 8.00535 54.5848C7.54 54.339 7.06171 54.1655 6.56404 53.992C6.06637 53.8201 5.56547 53.6498 5.1292 53.3574C4.46348 52.9092 3.96742 52.0931 4.0062 51.33C4.01751 51.0971 4.04821 50.8738 4.10962 50.6537C4.13062 50.5766 4.1387 50.5573 4.108 50.5717C4.0983 50.5766 3.61679 50.9718 2.77333 51.0328C2.05591 51.0842 1.14136 50.8063 1.06703 50.546C1.03148 50.4207 1.61479 50.5075 1.6051 50.4898C1.6051 50.4882 2.43886 50.501 2.69578 50.3709C2.79919 50.3195 2.92845 50.2553 3.02056 50.1862C3.18698 50.0625 3.24031 50.0094 3.37119 49.8617C3.41966 49.807 3.54085 49.6046 3.48268 49.5468C3.43582 49.5002 2.72324 49.9227 2.49541 49.9821C1.26416 50.3034 0.278514 49.6801 0.184796 49.6142C0.149248 49.5901 0.0878473 49.5532 0.0506835 49.5275C-0.033339 49.4681 -0.00102264 49.4118 0.0135197 49.4022C0.0409886 49.3829 0.231655 49.4054 0.263971 49.4022C0.491802 49.3781 1.37404 49.4118 1.60348 49.3909C2.01067 49.3524 2.39039 49.2399 2.72809 49.0038C2.93492 48.8592 4.76079 47.5579 4.9256 47.4438C5.03063 47.3715 6.9276 45.9803 7.09403 45.8582C7.16836 45.8036 7.89063 45.4582 8.17663 45.3409C8.38991 45.2525 9.2059 45.1176 9.38364 45.0662C9.55007 45.0196 11.363 44.9875 11.3743 44.9891C11.7605 45.0341 12.1532 45.0485 12.5296 45.161C12.562 45.1706 12.5959 45.1819 12.6282 45.1915C13.0855 45.3136 13.4119 45.5096 13.8191 45.7473C13.9079 45.7988 13.9903 45.8357 14.0857 45.8759C14.2246 45.9337 14.3587 45.9915 14.4815 46.0767C14.5187 46.1024 14.5914 46.1699 14.6334 46.1779C14.7885 46.2068 14.8903 46.3032 15.0083 46.3932C15.1263 46.4831 15.2798 46.5908 15.4042 46.6727C15.443 46.6984 15.4688 46.7305 15.5044 46.7578C15.7322 46.9297 15.9568 47.0759 16.1749 47.2591C16.2896 47.3555 16.4302 47.4599 16.5563 47.5386C16.7905 47.6848 16.9877 47.8085 17.1897 47.9965C17.2397 48.0431 17.3367 48.1121 17.3916 48.1539C17.5726 48.2953 17.7277 48.4431 17.8812 48.6118C18.1187 48.8736 18.3417 49.1162 18.6229 49.3347C18.694 49.3909 18.7748 49.4616 18.8394 49.5275C19.022 49.7171 19.2062 49.9195 19.4163 50.0785C19.6651 50.3613 20.6039 51.1517 20.8349 51.285C20.9658 51.3605 22.1938 52.3871 23.766 53.0972C25.0538 53.6787 25.482 53.8796 28.3226 54.0386C28.3792 54.0418 30.0209 54.127 31.593 53.5583C31.6561 53.5358 32.2361 53.3446 33.9392 52.2859C34.0459 52.22 34.8408 51.6288 35.1026 51.4152C35.3692 51.1983 35.5954 50.9685 35.8184 50.7244C36.0188 50.5043 36.1933 50.2665 36.3387 50.003C36.4825 49.7444 36.6554 49.5018 36.8348 49.2656C36.8897 49.1917 36.9495 49.1243 36.985 49.0391C37.0028 48.9973 37.0319 48.9604 37.061 48.9267C37.2872 48.6487 37.4601 48.3435 37.5586 47.9981C37.6055 47.8326 37.6653 47.672 37.717 47.5097C37.7445 47.4213 37.78 47.341 37.843 47.2687C37.8867 47.2173 37.9254 47.1563 37.9448 47.092C37.9901 46.9394 38.0595 46.7932 38.1032 46.6406C38.1306 46.541 38.1597 46.4494 38.2244 46.3643C38.2777 46.2936 38.3068 46.202 38.3326 46.1152C38.3682 45.9964 38.3892 45.8727 38.4199 45.7506C38.4587 45.5947 38.4942 45.4389 38.6073 45.3152C38.6639 45.2525 38.6768 45.1706 38.6833 45.0919C38.6994 44.883 39.9937 42.7448 40.186 42.6291C40.2603 42.5841 40.6852 42.1005 40.8824 41.9817C41.0488 41.8804 41.7275 41.339 41.7355 41.331C41.8713 41.1929 42.6145 40.7334 42.6161 40.7157C42.6161 40.7109 44.3968 39.5847 44.5664 39.3903C44.5794 39.3743 44.9688 39.1365 44.7943 39.0835C44.6731 39.0465 43.8232 39.8273 42.9442 39.9237C42.4352 39.9799 42.461 39.9767 42.2881 39.943C42.1637 39.9189 41.9262 39.7904 42.1637 39.6185C42.3091 39.514 43.1154 39.2731 43.4952 38.9228C43.8506 38.5967 44.0575 38.3766 44.0138 38.3847C43.8022 38.4264 42.8214 38.9437 42.2364 39.0947C41.9391 39.1718 41.3364 39.2923 40.6723 39.2731C40.2167 39.2602 40.4687 39.0144 40.4978 39.0064C40.577 38.9855 41.107 38.706 41.5384 38.4473C41.923 38.216 42.2187 37.8304 42.1944 37.7758C42.1815 37.7453 41.3817 38.1533 40.8323 38.2593C40.7822 38.2706 40.5382 37.8593 40.4833 37.877C40.4106 37.9011 40.5107 38.4184 40.4203 38.4634C40.11 38.6176 39.7061 38.6497 39.5364 38.677C38.9563 38.7686 38.428 38.7477 38.0709 38.6674C37.9642 38.6433 37.8285 38.5565 37.9464 38.4634C38.0806 38.3557 38.8723 38.0858 39.635 37.7533C40.5285 37.3629 40.6142 37.0818 40.7467 36.9099C40.8113 36.8279 39.8903 37.138 39.2908 37.3501C38.6477 37.5766 36.7394 38.0216 35.917 37.9846C35.5211 37.967 35.6859 37.7469 35.7118 37.7356C36.3807 37.4368 36.8671 37.1862 37.208 36.9886C37.9723 36.5484 37.9448 36.2608 37.9545 36.2512C37.9884 36.2175 37.0965 36.6062 36.4001 36.8729C36.1109 36.9838 35.5599 37.2023 35.0105 37.3613C34.9184 37.3886 34.4983 36.6914 34.4692 36.6946C34.3949 36.7042 34.5225 37.477 34.4692 37.4946C34.3464 37.5348 33.9505 37.726 33.0037 37.8497C32.9794 37.8529 31.8823 37.8898 31.627 37.832C31.4363 37.7886 31.4137 37.673 31.6044 37.5396C31.7207 37.4577 32.6498 37.1412 33.3252 36.7299C34.0006 36.3187 34.7681 35.7885 34.6873 35.7082C34.6647 35.6857 32.5625 36.4456 32.5302 36.4552C32.4688 36.4713 32.0649 35.7885 31.9582 35.7532C31.9469 35.75 32.0293 36.6319 31.9582 36.6689C31.6674 36.8135 30.9613 37.0609 30.7706 37.0866C30.6914 37.0962 30.2988 36.3476 30.2972 36.3588C30.2794 36.4745 30.2471 37.1139 30.163 37.1942C30.0047 37.2569 29.4182 37.2553 28.5909 37.2697C28.4422 37.2729 26.87 37.3083 26.7472 36.934C26.7181 36.8456 26.7407 36.7685 26.8312 36.7428C27.0833 36.6689 29.1241 36.0247 29.4198 35.8978C29.5458 35.8431 31.3781 35.0977 31.5219 34.7427C31.5333 34.7121 30.1744 35.1684 30.1453 35.1154C30.1275 35.0832 29.709 34.5161 29.6444 34.5643C29.5733 34.6174 29.6137 35.1395 29.6621 35.2744C29.6751 35.3098 28.4826 35.5491 27.3919 35.5941C26.1784 35.6439 25.0021 35.2327 24.8002 35.1507C24.7016 35.1106 24.4964 34.7957 24.8179 34.7427C25.4416 34.6398 26.1946 34.6366 27.3919 34.4053C27.8831 34.3105 29.3939 33.7723 29.3487 33.6486C29.3341 33.6101 29.0126 33.6502 27.8783 33.8141C27.6327 33.8494 26.4402 33.9378 25.9264 33.9249C25.9005 33.9249 25.7454 32.9723 25.6678 32.8807C25.6258 32.8711 25.3059 33.7707 25.238 33.9185C25.2057 33.9892 21.8545 33.88 21.8384 33.8189C21.827 33.7755 21.6655 32.9932 21.6655 32.9482C21.6655 32.8839 21.2809 33.8061 21.2324 33.8061C19.0979 33.8061 17.6599 32.9321 17.4934 32.7538C17.4595 32.7184 17.2252 32.3281 17.6712 32.3682C17.9232 32.3907 20.0658 32.3457 21.6202 32.222C24.1506 32.0437 24.6208 31.7304 24.3897 31.7063C23.8533 31.6533 22.0323 31.618 21.7802 31.6003C21.7576 31.5987 21.5168 30.5448 21.4942 30.5705C21.3714 30.7055 21.171 31.3931 21.0288 31.5473C20.919 31.5618 19.2401 31.4686 19.0446 31.4589C18.9751 31.4557 18.9057 30.5047 18.8846 30.5095C18.8087 30.5255 18.5615 31.3802 18.4548 31.4059C18.4047 31.3931 16.0893 31.0878 16.078 31.0862C13.8627 30.5866 13.504 30.2605 13.3618 30.1978C13.1226 30.0934 12.8706 29.6291 13.4684 29.6307C13.5945 29.6307 15.8841 29.7624 16.6177 29.7624C19.8299 29.7624 19.4389 29.2628 19.4049 29.2564C19.2983 29.2355 19.0802 29.2966 17.8457 29.221C17.8004 29.2178 16.3058 29.1343 16.309 29.0973C16.3139 29.017 16.2816 28.2716 16.2751 28.278C16.1911 28.3551 15.8582 28.964 15.8259 29.0267C15.8065 29.0668 14.6157 28.9383 14.6286 28.8853C14.6544 28.7857 14.585 28.0901 14.5736 28.0997C14.446 28.2057 14.1584 28.858 14.0744 28.8499C13.6656 28.8098 13.588 28.8114 12.3228 28.5479C11.754 28.429 11.0802 28.1399 10.6892 27.8169C10.3741 27.5583 10.6925 27.4474 10.7943 27.4201C10.8686 27.4009 17.8457 27.5535 18.1931 26.8064C18.2496 26.686 17.0345 26.7968 15.7629 26.8418C15.6821 26.845 12.9207 26.7711 12.8657 26.7599C12.8189 26.7502 12.7348 25.8731 12.6977 25.8939C12.6347 25.9293 12.3357 26.6795 12.3018 26.7197C12.2598 26.7695 11.9302 26.755 11.4842 26.7004C11.4228 26.6924 11.4616 25.9389 11.4373 25.947C11.4373 25.947 11.1287 26.4594 11.0011 26.6137C10.9671 26.6554 11.5311 26.7293 9.16066 26.2024C8.31882 26.016 7.46728 25.6594 6.90821 25.261C6.72239 25.1276 6.92598 24.8352 7.24753 24.8352C7.41073 24.8352 10.4178 24.8481 12.402 24.6762C16.0828 24.3565 15.3169 24.1476 15.3509 24.1428C15.7548 24.0898 14.8209 24.0288 14.5268 23.9629C14.3927 23.9324 12.3454 23.4456 12.3309 23.4327C12.3083 23.4103 12.3503 22.3724 12.3083 22.3773C12.2404 22.3853 11.7847 23.3026 11.7314 23.3364C11.6102 23.4119 10.1269 23.0616 9.89909 22.9701C9.86516 22.9556 10.0041 22.1556 9.94756 22.1507C9.87647 22.1443 9.41111 22.7837 9.32386 22.8239C9.28508 22.8415 6.67553 22.0527 5.35056 21.3539C4.43924 20.8736 5.10173 20.5715 5.51215 20.6422C5.5687 20.6519 7.06656 20.8382 10.8912 20.9266C12.9998 20.9764 14.362 20.6021 14.5898 20.5362C14.9453 20.4318 14.3216 20.3996 13.8384 20.2518C13.8255 20.2438 13.2147 20.1635 12.2065 19.8984C12.0837 19.8663 12.2291 18.973 12.1402 18.9554C12.0514 18.9377 11.5505 19.7153 11.405 19.6719C11.0382 19.561 10.6375 19.4293 10.2093 19.2751C9.42242 18.9907 7.85508 18.2726 7.86801 18.1907C7.88093 18.1087 8.09422 17.4468 8.05221 17.4356C7.97303 17.4147 7.43335 18.0348 7.42204 18.03C7.20875 17.9368 5.04517 16.4749 4.6703 15.9158C4.24858 15.2877 4.83189 15.2909 4.9563 15.3294C8.91182 16.552 11.7282 16.899 11.8494 16.9295C12.1321 17.0002 14.4977 17.2476 14.3442 17.1175C14.2376 17.0275 13.2471 16.5825 13.2471 16.4845C13.2471 16.3946 13.6284 15.4821 13.5686 15.4724C13.462 15.4548 12.9611 16.0588 12.7639 16.1472C12.6605 16.1938 10.9009 15.1174 10.7619 15.0451C10.505 14.9118 8.64683 13.4546 8.68884 13.3566C8.73247 13.2538 9.16389 12.7028 9.10087 12.6546C9.08472 12.6417 8.38507 13.0048 8.36729 13.0723C8.34952 13.1398 7.97465 12.8233 7.16997 11.5445C7.04717 11.3501 7.02778 10.7444 7.56262 11.0111C7.64179 11.0513 8.00697 11.2794 8.133 11.334C8.37537 11.4401 9.2366 12.155 10.8944 12.8763C10.9154 12.8859 13.4006 14.335 13.5314 14.1728C13.5735 14.1213 11.8332 12.6096 11.7088 12.0056C11.6943 11.9381 12.0756 11.3035 12.0659 11.2955C12.0239 11.2585 11.3549 11.62 11.3145 11.5798C10.9574 11.2248 10.3854 9.44797 10.3854 9.18129C10.3854 9.10096 10.4485 8.80857 10.707 8.93228C10.791 8.97244 10.8864 9.0367 10.9413 9.1106C11.1659 9.42387 13.1259 11.3597 13.4232 11.6505C13.7722 11.9911 15.3525 13.4273 16.3898 13.9253C16.1927 13.5703 15.1133 11.4176 15.0632 11.2778C15.0051 11.1171 14.9194 10.979 14.8596 10.8183C14.837 10.7573 15.4607 10.4151 15.4607 10.3717C15.4607 10.301 14.837 10.4279 14.7465 10.4071C14.6754 10.391 14.5785 10.007 14.5268 9.88012C14.425 9.63433 14.2198 8.47602 14.3248 8.36517C14.5623 8.11616 14.6043 8.29609 15.1877 9.02706C15.5448 9.47367 18.6293 14.1744 22.5978 17.4436C28.2515 22.1025 31.1584 22.7484 31.0178 22.6504C30.3214 22.17 29.6024 21.4648 29.5878 21.3716C29.57 21.2463 29.9708 20.6053 29.9013 20.5314C29.8738 20.5041 29.2921 20.9716 29.2663 20.9442C29.2404 20.9169 29.1079 20.782 28.8736 20.5539C28.258 19.9578 27.6246 18.4686 27.5357 17.8485C27.5228 17.7553 27.7361 17.6091 27.8702 17.7023C27.9268 17.7408 30.3214 19.9562 30.9128 20.3948C31.2763 20.6647 32.6563 21.5611 32.8695 21.6029C33.0489 21.6383 32.2814 20.994 30.7512 19.5144C29.4844 18.2903 28.3679 16.9906 28.3598 16.9745C28.3388 16.9295 28.8559 16.5488 28.8559 16.401C28.8559 16.3817 28.2014 16.6195 28.1449 16.6275C28.0641 16.6404 27.5535 15.7022 27.3548 15.3744C26.6826 14.274 26.5016 13.5462 26.4984 13.1912C26.4984 13.1269 26.5307 13 26.6082 12.9695C26.6535 12.9518 26.6745 12.9486 26.7214 12.963C26.8312 12.9984 30.1065 16.5054 30.6187 16.9826C31.2133 17.5368 32.3089 18.3818 32.8647 18.7754C33.1103 18.9506 33.2476 18.9811 33.1927 18.9538C33.1733 18.9441 32.4914 18.2405 31.6512 17.3681C31.5785 17.2926 32.0939 16.6484 32.039 16.5954C31.9647 16.5215 31.2893 17.042 31.2149 16.9633C30.9144 16.642 30.6042 16.303 30.3036 15.9624C28.9253 14.3928 27.7426 12.7719 27.7797 12.7349C27.846 12.669 28.3081 12.2963 28.2806 12.2305C28.2499 12.155 27.5891 12.4506 27.5697 12.3911C27.5632 12.3686 26.7052 11.2585 26.8296 11.175C26.9346 11.1059 27.4162 10.775 27.3952 10.6721C27.3806 10.6079 26.7246 10.9115 26.6583 10.8183C26.5388 10.6513 25.865 9.29053 25.8827 8.27681C25.8827 8.24308 25.9086 7.98925 25.9183 7.95712C25.9361 7.89768 26.0007 7.71293 26.1623 7.84627C26.2366 7.90731 28.4002 10.5725 28.4874 10.6786C28.649 10.8713 29.9336 12.4409 31 13.4964C33.0667 15.5431 33.4771 15.6861 33.5126 15.6154C33.553 15.5367 31.6787 13.5944 31.7078 13.3582C31.7142 13.302 32.3557 12.4393 32.3331 12.4072C32.3089 12.3734 31.4105 12.7558 31.3507 12.8072C31.2941 12.8538 30.9193 12.2192 30.7609 12.0425C30.6575 11.9622 31.3491 11.2537 31.3604 11.2344C31.4056 11.1493 30.4571 11.6087 30.4038 11.5461C29.0821 9.9476 28.5004 8.73789 28.3307 8.50815C28.2418 8.38927 29.0336 7.76273 28.977 7.67276C28.9173 7.57958 28.1158 8.06315 28.0803 8.0278C27.951 7.89928 27.5357 7.04622 27.4792 6.94501C27.4226 6.84219 28.2031 6.35702 28.1659 6.27348C28.1336 6.19958 27.3531 6.56105 27.3127 6.4743C27.0316 5.86703 27.0413 5.88792 26.7569 5.01718C26.5275 4.31995 26.5065 3.36407 26.6697 3.04919C26.7634 2.86926 26.933 2.84195 27.0332 2.96405C27.1544 3.11024 29.9061 7.04622 30.2487 7.51372C31.1018 8.67845 32.9229 10.8264 33.0828 10.693C33.1523 10.6352 31.2069 7.76112 31.2957 7.67276C31.3151 7.65348 32.0843 6.83255 32.0713 6.8197C32.0439 6.79239 31.1261 7.31611 31.0986 7.2631C31.0711 7.21008 29.8867 5.00594 29.8657 4.91758C29.8447 4.83243 30.6365 4.16733 30.5961 4.07415C30.5702 4.0131 29.6686 4.46454 29.6508 4.41955C28.7573 2.19934 28.9189 1.43464 28.8817 0.918942C28.8688 0.722946 28.9576 0.411281 29.0013 0.221711C29.0255 0.118894 29.1855 -0.0771022 29.3454 0.0482065C29.3907 0.0819435 29.5103 0.237776 29.5426 0.297218C36.2983 12.7703 41.2039 15.7295 42.8391 16.8749C43.7747 17.5304 45.1417 18.4059 46.5377 19.8598C48.1358 21.5242 48.3071 24.8176 49.4333 27.7495C49.8744 28.8997 51.487 32.0566 51.5242 32.0485C51.8812 31.9778 53.5181 30.3344 54.6766 28.5752C55.4861 27.3462 55.9854 26.4161 55.9192 25.963C54.1773 27.2595 53.4938 25.4297 52.1802 26.363C52.1398 26.392 52.0444 26.3534 52.1058 26.2426C52.3111 25.8731 52.5631 25.3799 53.5278 25.1292C53.9899 25.0104 54.4795 25.1935 55.3165 24.922C55.6736 24.8063 55.8271 24.4079 55.84 24.3758C55.8497 24.3501 55.5395 24.5236 55.1727 24.5862C54.7606 24.6553 54.3017 24.6987 54.2888 24.7003C53.5746 24.7533 52.9848 24.5637 52.4274 24.3276C52.0994 24.1894 51.6534 23.828 51.4611 23.7107C51.0022 23.4295 50.1022 23.407 49.8324 23.4729C49.8049 23.4793 49.6482 23.489 49.7015 23.3701C49.7128 23.3444 50.0602 23.06 50.1846 23.0006C50.5401 22.8287 51.3044 22.6311 51.9992 22.9283C54.4779 23.987 54.8851 23.2046 54.8576 23.1902C54.696 23.1018 53.9107 22.9588 53.2854 22.7821C52.8572 22.66 52.715 22.5941 52.1058 22.3387C51.8231 22.2198 51.3561 21.5724 50.6758 21.4503C49.9956 21.3282 49.2927 21.3587 49.1117 21.3266C49.0584 21.317 49.0342 21.2222 49.0778 21.1868C49.1651 21.1145 49.6143 20.5844 51.1574 20.7595C51.9443 20.8479 54.1773 21.5869 54.3389 21.6077C54.8947 21.6816 52.408 20.7354 52.3725 20.7241C51.0136 20.2438 50.1135 19.5434 49.9067 19.3201C49.3024 18.6726 49.2669 18.332 49.2071 18.173C49.1715 18.0782 49.0487 17.6348 49.0439 17.5336C49.0374 17.3569 49.0099 17.0613 49.1392 17.2637C49.1634 17.3007 50.1766 18.3288 50.4771 18.5039C53.224 20.1024 56.1519 19.4727 55.8384 19.41C55.436 19.3297 52.8475 19.0502 51.5759 18.1039C50.3042 17.1577 50.036 16.6372 48.7756 15.6652C48.4202 15.3905 47.8627 15.2861 47.5557 15.1961C47.3263 15.1961 47.0968 15.1624 46.8674 15.1881C46.7882 15.1961 46.7074 15.2025 46.6282 15.2025C46.6121 15.2025 46.5911 15.1784 46.583 15.1592C46.5749 15.1399 46.5717 15.1126 46.5814 15.0949C46.6444 14.976 47.4281 14.7158 48.0404 14.7415C48.2812 14.7511 48.5155 14.7848 48.7563 14.8186C49.2604 14.8877 49.8502 15.0644 50.4496 15.278L52.2674 16.0347ZM68.2414 32.8839C67.9457 33.0462 67.2315 33.5876 66.5335 34.1209C66.0778 34.4679 65.2958 35.313 65.3006 35.3467C65.2731 35.6937 65.2424 35.9251 65.194 36.2528C65.1552 36.5114 64.6995 37.3308 64.7658 37.3725C64.8239 37.4095 66.0988 38.5405 66.1602 38.5726C66.2717 38.6305 66.8615 39.3566 66.9649 39.4257C67.0764 39.5012 67.4028 39.8867 67.608 40.0651C67.7502 40.1888 68.4062 38.902 68.4127 38.812C68.4757 38.2433 68.3238 36.9372 68.3238 36.4938C68.306 35.9604 68.4256 34.9033 68.4304 34.823C68.4418 34.6302 68.529 32.9193 68.243 32.8839H68.2414ZM68.9621 19.606C69.0267 19.598 69.0929 19.606 69.1446 19.5819C69.4193 19.4566 69.7182 19.4373 70.0091 19.3795C70.1238 19.357 70.1594 19.2478 70.077 19.161C70.0091 19.0903 69.9412 19.0164 69.8621 18.9602C69.7005 18.8461 69.513 18.7626 69.3692 18.6325C69.1446 18.4284 68.8748 18.3995 68.5985 18.3802C68.5177 18.3738 68.4498 18.4188 68.4078 18.4959C68.3496 18.6035 68.319 18.7112 68.3513 18.8349C68.3981 19.0052 68.4353 19.1787 68.4821 19.349C68.5161 19.4743 68.6066 19.5466 68.7342 19.5723C68.8118 19.5867 68.891 19.5964 68.9637 19.6076L68.9621 19.606ZM67.5531 18.369C67.4351 18.2228 67.1992 18.1826 67.0118 18.2019C66.9148 18.2115 66.8469 18.3353 66.8986 18.4172C67.0651 18.679 67.2428 18.9313 67.4626 19.1546C67.5159 19.2076 67.6112 19.1819 67.6452 19.0967C67.6807 19.0068 67.6516 18.4895 67.5547 18.369H67.5531ZM72.079 25.6016C72.1145 25.5983 72.1533 25.6064 72.1824 25.5903C72.3149 25.5228 72.394 25.4072 72.4361 25.269C72.4409 25.2545 72.4393 25.2337 72.4328 25.2192C72.3763 25.0682 72.2923 24.9365 72.1694 24.8288C72.1258 24.7903 72.0046 24.8208 71.9917 24.8818C71.9545 25.0521 71.919 25.224 71.8867 25.3959C71.8673 25.4987 71.9578 25.5903 72.0773 25.6016H72.079Z" fill="white"/>
</g>
<defs>
<clipPath id="clip0_2808_131">
<rect width="144" height="80" fill="white"/>
</clipPath>
</defs>
</svg>
